<svg width="200" height="200" viewBox="0 0 200 200" fill="none" xmlns="http://www.w3.org/2000/svg">
<rect width="200" height="200" fill="#E11A45"/>
<g clip-path="url(#clip0_642_47)">
<path d="M87.1552 100.52C87.1552 95.0882 82.7568 90.6692 77.3509 90.6692H66.7468V116.741H72.1488V110.366H77.3549C77.5868 110.366 77.8187 110.354 78.0466 110.338L81.7252 116.741H87.9629L83.1847 108.43C85.5918 106.634 87.1592 103.757 87.1592 100.516L87.1552 100.52ZM77.3509 104.943H72.1448V96.1005H77.3509C79.7779 96.1005 81.7532 98.0851 81.7532 100.524C81.7532 102.962 79.7779 104.947 77.3509 104.947V104.943ZM100.974 116.745H95.572V90.6732H100.974V116.745ZM167.129 99.9089L48.1738 30.9043V168.91L95.576 141.415V148.413H100.978V138.282L102.553 137.37L110.218 148.413H116.804L107.248 134.646L167.133 99.9089H167.129ZM87.9309 139.583C87.8789 138.856 87.7389 138.181 87.507 137.579C87.2071 136.795 86.7353 136.1 86.1036 135.506C85.4838 134.923 84.6841 134.421 83.7285 134.012C82.7888 133.61 81.6532 133.272 80.3577 133.011L77.2909 132.393C75.8514 132.103 74.8118 131.738 74.204 131.312C73.6482 130.922 73.3763 130.428 73.3763 129.801C73.3763 129.404 73.4643 129.054 73.6482 128.737C73.8322 128.415 74.0961 128.134 74.436 127.901C74.7878 127.664 75.2237 127.475 75.7235 127.347C76.2313 127.214 76.8151 127.15 77.4548 127.15C78.0946 127.15 78.6384 127.222 79.1542 127.363C79.662 127.504 80.1058 127.704 80.4777 127.957C80.8455 128.211 81.1454 128.516 81.3773 128.865C81.6053 129.207 81.7452 129.593 81.7972 130.014L81.8372 130.328H87.511L87.499 129.958C87.4631 128.837 87.1792 127.789 86.6594 126.853C86.1435 125.921 85.4278 125.109 84.5362 124.442C83.6485 123.78 82.5889 123.257 81.3813 122.892C80.1778 122.526 78.8463 122.341 77.4228 122.341C75.9994 122.341 74.5479 122.526 73.3244 122.892C72.0888 123.257 71.0172 123.792 70.1416 124.483C69.2579 125.174 68.5622 126.017 68.0783 126.985C67.5905 127.957 67.3426 129.05 67.3426 130.239C67.3426 134.096 69.7617 136.53 74.5319 137.478L77.8467 138.145C78.6024 138.298 79.2621 138.471 79.8019 138.659C80.3297 138.844 80.7616 139.053 81.0854 139.278C81.3893 139.491 81.6133 139.728 81.7492 139.989C81.8891 140.25 81.9531 140.536 81.9531 140.857C81.9531 141.247 81.8572 141.596 81.6532 141.917C81.4453 142.251 81.1534 142.544 80.7816 142.785C80.3977 143.034 79.9339 143.235 79.3941 143.376C78.8503 143.516 78.2385 143.589 77.5788 143.589C76.855 143.589 76.1913 143.516 75.5955 143.372C75.0077 143.231 74.4919 143.026 74.0601 142.769C73.6402 142.516 73.3004 142.211 73.0445 141.857C72.7966 141.508 72.6486 141.13 72.5966 140.696L72.5607 140.383H66.7388L66.7548 140.757C66.8028 141.934 67.0947 143.01 67.6185 143.958C68.1423 144.902 68.874 145.718 69.7937 146.381C70.7054 147.035 71.8089 147.546 73.0765 147.895C73.1964 147.927 73.3284 147.951 73.4523 147.984L53.5678 159.517V40.3047L156.329 99.9049L100.974 132.015V122.337H95.572V135.148L87.9309 139.579V139.583Z" fill="#F4F4F4"/>
</g>
<defs>
<clipPath id="clip0_642_47">
<rect width="118.959" height="138.005" fill="white" transform="translate(48.1738 30.9043)"/>
</clipPath>
</defs>
</svg>
