<svg width="16" height="16" viewBox="0 0 16 16" fill="none" xmlns="http://www.w3.org/2000/svg">
<mask id="mask0_139_238" style="mask-type:alpha" maskUnits="userSpaceOnUse" x="0" y="0" width="16" height="16">
<rect width="16" height="16" fill="#D9D9D9"/>
</mask>
<g mask="url(#mask0_139_238)">
<path d="M2.66683 13.3333C2.30016 13.3333 1.98627 13.2028 1.72516 12.9417C1.46405 12.6806 1.3335 12.3667 1.3335 12V4C1.3335 3.63333 1.46405 3.31944 1.72516 3.05833C1.98627 2.79722 2.30016 2.66667 2.66683 2.66667H13.3335C13.7002 2.66667 14.0141 2.79722 14.2752 3.05833C14.5363 3.31944 14.6668 3.63333 14.6668 4V12C14.6668 12.3667 14.5363 12.6806 14.2752 12.9417C14.0141 13.2028 13.7002 13.3333 13.3335 13.3333H2.66683ZM8.00016 8.66667L13.3335 5.33333V4L8.00016 7.33333L2.66683 4V5.33333L8.00016 8.66667Z" fill="#00BBCC"/>
</g>
</svg>
