<svg width="16" height="16" viewBox="0 0 16 16" fill="none" xmlns="http://www.w3.org/2000/svg">
<mask id="mask0_139_245" style="mask-type:alpha" maskUnits="userSpaceOnUse" x="0" y="0" width="16" height="16">
<rect width="16" height="16" fill="#D9D9D9"/>
</mask>
<g mask="url(#mask0_139_245)">
<path d="M13.9668 14.9167L12.0002 12.95V14.4333H10.6668V10.6667H14.4335V12H12.9335L14.9002 13.9667L13.9668 14.9167ZM8.00016 14.6667C7.07794 14.6667 6.21127 14.4917 5.40016 14.1417C4.58905 13.7917 3.8835 13.3167 3.2835 12.7167C2.6835 12.1167 2.2085 11.4111 1.8585 10.6C1.5085 9.78889 1.3335 8.92222 1.3335 8C1.3335 7.07778 1.5085 6.21111 1.8585 5.4C2.2085 4.58889 2.6835 3.88333 3.2835 3.28333C3.8835 2.68333 4.58905 2.20833 5.40016 1.85833C6.21127 1.50833 7.07794 1.33333 8.00016 1.33333C8.92239 1.33333 9.78905 1.50833 10.6002 1.85833C11.4113 2.20833 12.1168 2.68333 12.7168 3.28333C13.3168 3.88333 13.7918 4.58889 14.1418 5.4C14.4918 6.21111 14.6668 7.07778 14.6668 8C14.6668 8.22222 14.6557 8.44444 14.6335 8.66667C14.6113 8.88889 14.5779 9.11111 14.5335 9.33333H13.1668C13.2224 9.11111 13.2641 8.88889 13.2918 8.66667C13.3196 8.44444 13.3335 8.22222 13.3335 8C13.3335 7.77778 13.3196 7.55555 13.2918 7.33333C13.2641 7.11111 13.2224 6.88889 13.1668 6.66667H10.9002C10.9335 6.88889 10.9585 7.11111 10.9752 7.33333C10.9918 7.55555 11.0002 7.77778 11.0002 8C11.0002 8.22222 10.9918 8.44444 10.9752 8.66667C10.9585 8.88889 10.9335 9.11111 10.9002 9.33333H9.56683C9.60016 9.11111 9.62516 8.88889 9.64183 8.66667C9.6585 8.44444 9.66683 8.22222 9.66683 8C9.66683 7.77778 9.6585 7.55555 9.64183 7.33333C9.62516 7.11111 9.60016 6.88889 9.56683 6.66667H6.4335C6.40016 6.88889 6.37516 7.11111 6.3585 7.33333C6.34183 7.55555 6.3335 7.77778 6.3335 8C6.3335 8.22222 6.34183 8.44444 6.3585 8.66667C6.37516 8.88889 6.40016 9.11111 6.4335 9.33333H8.66683V10.6667H6.7335C6.86683 11.1444 7.03905 11.6028 7.25016 12.0417C7.46127 12.4806 7.71127 12.9 8.00016 13.3C8.22239 13.3 8.44461 13.2861 8.66683 13.2583C8.88905 13.2306 9.11127 13.2056 9.3335 13.1833V14.55C9.11127 14.5722 8.88905 14.5972 8.66683 14.625C8.44461 14.6528 8.22239 14.6667 8.00016 14.6667ZM2.8335 9.33333H5.10016C5.06683 9.11111 5.04183 8.88889 5.02516 8.66667C5.0085 8.44444 5.00016 8.22222 5.00016 8C5.00016 7.77778 5.0085 7.55555 5.02516 7.33333C5.04183 7.11111 5.06683 6.88889 5.10016 6.66667H2.8335C2.77794 6.88889 2.73627 7.11111 2.7085 7.33333C2.68072 7.55555 2.66683 7.77778 2.66683 8C2.66683 8.22222 2.68072 8.44444 2.7085 8.66667C2.73627 8.88889 2.77794 9.11111 2.8335 9.33333ZM3.40016 5.33333H5.36683C5.46683 4.92222 5.59183 4.51944 5.74183 4.125C5.89183 3.73055 6.06683 3.34444 6.26683 2.96667C5.65572 3.16667 5.10572 3.46944 4.61683 3.875C4.12794 4.28055 3.72239 4.76667 3.40016 5.33333ZM6.26683 13.0333C6.06683 12.6556 5.89183 12.2694 5.74183 11.875C5.59183 11.4806 5.46683 11.0778 5.36683 10.6667H3.40016C3.72239 11.2333 4.12794 11.7194 4.61683 12.125C5.10572 12.5306 5.65572 12.8333 6.26683 13.0333ZM6.7335 5.33333H9.26683C9.1335 4.85555 8.96127 4.39722 8.75016 3.95833C8.53905 3.51944 8.28905 3.1 8.00016 2.7C7.71127 3.1 7.46127 3.51944 7.25016 3.95833C7.03905 4.39722 6.86683 4.85555 6.7335 5.33333ZM10.6335 5.33333H12.6002C12.2779 4.76667 11.8724 4.28055 11.3835 3.875C10.8946 3.46944 10.3446 3.16667 9.7335 2.96667C9.9335 3.34444 10.1085 3.73055 10.2585 4.125C10.4085 4.51944 10.5335 4.92222 10.6335 5.33333Z" fill="#00BBCC"/>
</g>
</svg>
