<svg width="16" height="16" viewBox="0 0 16 16" fill="none" xmlns="http://www.w3.org/2000/svg">
<path fill-rule="evenodd" clip-rule="evenodd" d="M13.1853 14.6667H2.81498C1.99678 14.6667 1.3335 14.0034 1.3335 13.1852V2.81481C1.3335 1.99661 1.99678 1.33333 2.81498 1.33333H13.1853C14.0035 1.33333 14.6668 1.99661 14.6668 2.81481V13.1852C14.6668 14.0034 14.0035 14.6667 13.1853 14.6667ZM10.8364 12.8148H12.815V8.75018C12.815 7.03041 11.8401 6.19888 10.4784 6.19888C9.11609 6.19888 8.54276 7.25976 8.54276 7.25976V6.39502H6.63595V12.8148H8.54276V9.44479C8.54276 8.54183 8.95841 8.0045 9.75399 8.0045C10.4853 8.0045 10.8364 8.52083 10.8364 9.44479V12.8148ZM3.18534 4.36977C3.18534 5.02396 3.71164 5.5544 4.36114 5.5544C5.01064 5.5544 5.53663 5.02396 5.53663 4.36977C5.53663 3.71558 5.01064 3.18514 4.36114 3.18514C3.71164 3.18514 3.18534 3.71558 3.18534 4.36977ZM5.36486 12.8148H3.37655V6.39502H5.36486V12.8148Z" fill="#00BBCC"/>
</svg>
