<svg width="16" height="16" viewBox="0 0 16 16" fill="none" xmlns="http://www.w3.org/2000/svg">
<mask id="mask0_139_235" style="mask-type:alpha" maskUnits="userSpaceOnUse" x="0" y="0" width="16" height="16">
<rect width="16" height="16" fill="#D9D9D9"/>
</mask>
<g mask="url(#mask0_139_235)">
<path d="M2.66683 14C2.30016 14 1.98627 13.8694 1.72516 13.6083C1.46405 13.3472 1.3335 13.0333 1.3335 12.6667V5.33333C1.3335 4.96667 1.46405 4.65278 1.72516 4.39167C1.98627 4.13056 2.30016 4 2.66683 4H5.3335V2.66667C5.3335 2.3 5.46405 1.98611 5.72516 1.725C5.98627 1.46389 6.30016 1.33333 6.66683 1.33333H9.3335C9.70016 1.33333 10.0141 1.46389 10.2752 1.725C10.5363 1.98611 10.6668 2.3 10.6668 2.66667V4H13.3335C13.7002 4 14.0141 4.13056 14.2752 4.39167C14.5363 4.65278 14.6668 4.96667 14.6668 5.33333V12.6667C14.6668 13.0333 14.5363 13.3472 14.2752 13.6083C14.0141 13.8694 13.7002 14 13.3335 14H2.66683ZM6.66683 4H9.3335V2.66667H6.66683V4Z" fill="#00BBCC"/>
</g>
</svg>
