<?xml version="1.0" encoding="UTF-8"?>
<svg id="Layer_1" data-name="Layer 1" xmlns="http://www.w3.org/2000/svg" viewBox="0 0 16 16">
  <defs>
    <style>
      .cls-1 {
        fill: #0bc;
      }
    </style>
  </defs>
  <path class="cls-1" d="m13,2H3c-.55,0-1,.45-1,1v10c0,.55.45,1,1,1h10c.55,0,1-.45,1-1V3c0-.55-.45-1-1-1Zm-7.19,9.96h-1.65v-5.33h1.65v5.33Zm-.83-6.02c-.54,0-.98-.44-.98-.98s.44-.98.98-.98.98.44.98.98-.44.98-.98.98Zm7.01,6.02h-1.64v-2.8c0-.77-.29-1.2-.9-1.2-.66,0-1,.45-1,1.2v2.8h-1.58v-5.33h1.58v.72s.48-.88,1.61-.88,1.94.69,1.94,2.12v3.37Z"/>
</svg>