<svg width="140" height="40" viewBox="0 0 140 40" fill="none" xmlns="http://www.w3.org/2000/svg">
<path fill-rule="evenodd" clip-rule="evenodd" d="M11.111 28.402H0V0H11.111V1.74568H1.96965V12.8917H11.111V14.6374H1.96965V26.6633H11.111V28.402ZM25.3865 24.017L25.3727 23.4767V0H27.3493V28.402H25.0914L25.0502 28.305L15.4078 4.5374L15.3392 4.35036V28.402H13.3695V0H15.6618L15.7029 0.10391L25.311 23.7884L25.3865 24.017ZM29.5959 28.402H41.3795V25.8528H32.3891V15.1362H41.3795V12.5869H32.3891V2.59082H41.3795V0H29.5959V28.402ZM82.0566 0H90.4293L90.4567 0.131619L95.899 28.402H89.4136L88.7067 23.6845H83.8203L83.0723 28.402H76.628L82.0566 0ZM87.8684 18.302L86.4008 8.90853L86.2635 7.7586L86.1263 8.90161L84.6576 18.302H87.8684ZM139.181 7.03816V0H123.684V28.402H139.181V21.3639H130.657V17.7201H139.181V10.6819H130.657V7.03816H139.181ZM106.577 0L109.775 14.8245L112.973 0H121.429V28.402H114.456V17.3529L111.148 28.402H108.403L105.095 17.3599V28.402H98.1222V0H106.577ZM55.115 15.1847C56.1375 14.8314 56.968 14.1802 57.5856 13.252C58.2856 12.199 58.6425 10.8343 58.6425 9.19256V7.07972C58.6425 4.72443 58.0248 2.93718 56.817 1.76647C55.6091 0.59575 53.8247 0 51.5188 0H44.4706V28.4713H48.1972V17.0689H50.8462C53.0081 17.0689 54.8405 18.7661 54.8405 20.775C54.8405 22.784 54.8679 28.4782 54.8679 28.4782H58.6837V20.4633C58.6837 17.3183 56.563 15.7319 55.1218 15.1916L55.115 15.1847ZM54.9159 7.12129V9.35188C54.9159 12.2406 53.66 13.6468 51.0727 13.6468H48.204V3.4221H51.3747C52.5482 3.4221 53.4404 3.74075 54.0306 4.37114C54.6208 5.00153 54.9228 5.92979 54.9228 7.11436L54.9159 7.12129ZM71.7224 17.9095H68.7302V13.6492H76.3137V18.9902C76.3137 22.0798 75.7303 24.4628 74.5842 26.063C73.4244 27.684 71.4342 28.5014 68.6684 28.5014C66.0468 28.5014 64.084 27.7186 62.8281 26.1808C61.5791 24.6498 60.9477 22.2945 60.9477 19.1772V9.38892C60.9477 6.25085 61.5791 3.8817 62.8281 2.36462C64.084 0.840608 65.9782 0.0647481 68.6684 0.0647481C71.3587 0.0647481 73.3283 0.840608 74.5088 2.37155C75.6823 3.88863 76.2794 6.07766 76.2794 8.8763V10.6012H71.3312V8.54379C71.3312 7.23453 71.1391 6.23006 70.7547 5.55119C70.3841 4.89309 69.6979 4.57443 68.6616 4.57443C67.8174 4.57443 67.1655 4.89309 66.6713 5.55119C66.1772 6.21621 65.9233 7.26224 65.9233 8.65463V19.8423C65.9233 22.7102 66.8154 24.1026 68.6616 24.1026C69.7185 24.1026 70.494 23.7908 70.9812 23.1743C71.4753 22.5508 71.7224 21.4494 71.7224 19.9115V17.9095ZM30.7644 38.6965L30.7026 39.0636H30.6889L30.6271 38.6965L29.7555 34.0967H28.6026L27.731 38.6965L27.6761 39.0636H27.6623L27.6006 38.6965L26.6604 34.0967H25.7613L27.0859 39.8949H28.2457L29.1104 35.406L29.1722 35.0111H29.1859L29.2408 35.406L30.1124 39.8949H31.2722L32.5968 34.0967H31.6909L30.7644 38.6965ZM17.5069 36.6334C17.5069 34.8739 18.2207 33.9941 19.6481 33.9941V34.001C20.3687 34.001 20.9041 34.2227 21.2609 34.6591C21.6178 35.0955 21.7962 35.7536 21.7962 36.6334V37.34C21.7962 39.1134 21.0893 40.0001 19.655 40.0001C18.2207 40.0001 17.5069 39.1134 17.5069 37.34V36.6334ZM20.6021 38.7739C20.8148 38.4761 20.9178 38.0119 20.9178 37.3954V36.5918C20.9178 35.9753 20.8148 35.525 20.6021 35.2272C20.3893 34.9293 20.0805 34.7838 19.6619 34.7838C18.8177 34.7838 18.3922 35.3865 18.3922 36.5918V37.3954C18.3922 38.6146 18.8177 39.2242 19.6619 39.2242C20.0736 39.2242 20.3893 39.0787 20.6021 38.7739ZM80.1731 38.4194H80.1662L79.9809 38.0592L77.8466 34.0967H76.8583V39.888H77.7299V35.5722H77.7368L77.9221 35.9325L80.0496 39.888H81.0378V34.0967H80.1731V38.4194ZM112.746 37.9899L112.835 37.6782L114.118 34.0967H115.271V39.8949H114.407V36.0918L114.42 35.5099H114.407L114.311 35.7662L113.096 39.0775H112.375L111.161 35.7662L111.065 35.5099H111.058L111.078 36.0918V39.8949H110.2V34.0967H111.36L112.643 37.6782L112.725 37.9899H112.746ZM103.35 37.3041H105.54V36.5629H103.35V34.8587H105.814V34.0967H102.472V39.888H105.848V39.126H103.35V37.3041ZM12.8731 37.6297C13.0172 37.8444 13.1064 38.1146 13.1476 38.4402L13.1408 38.4332L13.2231 39.0567C13.2849 39.4377 13.3535 39.7148 13.4427 39.8949H12.5437C12.4888 39.7286 12.4201 39.4169 12.3447 38.9736L12.2417 38.364C12.2074 38.1215 12.1113 37.9414 11.9535 37.8236C11.7956 37.6989 11.5623 37.6435 11.2466 37.6435H10.3613V39.888H9.48283V34.0967H11.4662C12.6809 34.0967 13.2917 34.6509 13.2917 35.7593C13.2917 36.1611 13.2025 36.4867 13.0241 36.736C12.8456 36.9854 12.5986 37.1448 12.2829 37.2279C12.5368 37.2833 12.729 37.4218 12.8731 37.6297ZM10.3681 36.8815H11.3564C12.0564 36.8815 12.4064 36.5282 12.4064 35.8216V35.7939C12.4064 35.496 12.3309 35.2674 12.1662 35.1081C12.0084 34.9488 11.7613 34.8726 11.4388 34.8726H10.3681V36.8815ZM2.93124 37.6513H4.16656V37.776C4.15283 38.2817 4.04302 38.6489 3.83714 38.8705C3.63125 39.0922 3.33615 39.21 2.94496 39.21C2.11455 39.21 1.70278 38.6142 1.70278 37.4158V36.5637C1.70278 35.3653 2.11455 34.7626 2.94496 34.7626C3.34987 34.7626 3.64498 34.8804 3.83027 35.109C4.01557 35.3376 4.10479 35.6424 4.11165 36.0165V36.0373H4.98324V36.0165C4.98324 35.4138 4.81167 34.922 4.48225 34.5479C4.15283 34.1738 3.64498 33.9798 2.95182 33.9798C2.25867 33.9798 1.69591 34.2015 1.34591 34.6379C0.995899 35.0744 0.817464 35.7394 0.817464 36.633V37.3535C0.817464 38.2332 0.995899 38.8982 1.34591 39.3347C1.69591 39.7711 2.23122 39.9858 2.95182 39.9858C3.67243 39.9858 4.20087 39.7711 4.51656 39.3347C4.83912 38.8982 4.99697 38.2886 4.99697 37.5059V36.8824H2.92437V37.6444L2.93124 37.6513ZM97.1614 37.6513H95.926V37.6444V36.8824H97.9986V37.5059C97.9986 38.2886 97.8339 38.8982 97.5182 39.3347C97.1957 39.7711 96.6672 39.9858 95.9466 39.9858C95.226 39.9858 94.6907 39.7711 94.3407 39.3347C93.9907 38.8982 93.8123 38.2332 93.8123 37.3535V36.633C93.8123 35.7394 93.9907 35.0744 94.3407 34.6379C94.6907 34.2015 95.2535 33.9798 95.9466 33.9798C96.6398 33.9798 97.1476 34.1738 97.477 34.5479C97.8065 34.922 97.978 35.4138 97.978 36.0165V36.0373H97.1064V36.0165C97.0996 35.6424 97.0104 35.3376 96.8251 35.109C96.6398 34.8804 96.3447 34.7626 95.9398 34.7626C95.1093 34.7626 94.6976 35.3653 94.6976 36.5637V37.4158C94.6976 38.6142 95.1093 39.21 95.9398 39.21C96.3309 39.21 96.626 39.0922 96.8319 38.8705C97.0378 38.6489 97.1476 38.2817 97.1614 37.776V37.6513ZM36.2032 34.8587H37.713V39.888H38.5984V34.8587H40.1082V34.0967H36.2032V34.8587ZM61.1716 37.9899L61.2608 37.6782L62.5442 34.0967H63.6972V39.8949H62.8324V36.0918L62.8462 35.5099H62.8324L62.7364 35.7662L61.5285 39.0775H60.801L59.5863 35.7662L59.4902 35.5099H59.4833L59.5039 36.0918V39.8949H58.6255V34.0967H59.7853L61.0687 37.6782L61.1579 37.9899H61.1716ZM131.066 38.4194H131.059L130.867 38.0592L128.739 34.0967H127.751V39.888H128.623V35.5722H128.63L128.815 35.9325L130.942 39.888H131.931V34.0967H131.066V38.4194ZM67.9098 39.888L69.701 34.0967H70.8471L72.6383 39.888H71.7187L71.3206 38.5164H69.2343L68.8294 39.888H67.9098ZM70.1676 35.2882L69.4402 37.7751H69.447H71.1147L70.3873 35.2882L70.2843 34.8795H70.2706L70.1676 35.2882ZM136.095 34.8587H137.605V39.888H138.483V34.8587H140V34.0967H136.095V34.8587ZM45.1497 36.5767H47.4282V34.0967H48.3135V39.888H47.4282V37.3387H45.1497V39.888H44.2712V34.0967H45.1497V36.5767ZM120.902 37.3041H123.092V36.5629H120.902V34.8587H123.373V34.0967H120.024V39.888H123.401V39.126H120.902V37.3041ZM85.2616 39.888L87.0528 34.0967H87.0597H88.2058L89.997 39.888H89.0774L88.6725 38.5164H86.5862L86.1813 39.888H85.2616ZM87.5195 35.2882L86.7921 37.7751H86.7989H88.4666L87.7391 35.2882L87.6362 34.8795H87.6225L87.5195 35.2882Z" fill="#202020"/>
</svg>
