<?xml version="1.0" encoding="UTF-8"?>
<svg id="Layer_1" data-name="Layer 1" xmlns="http://www.w3.org/2000/svg" viewBox="0 0 16 16">
  <defs>
    <style>
      .cls-1 {
        fill: #0bc;
      }
    </style>
  </defs>
  <path class="cls-1" d="m8.76,2.05c-.09-.01-.17-.02-.26-.03-.17-.01-.33-.03-.51-.03s-.34.01-.51.03c-.09,0-.17.02-.26.03-2.95.38-5.24,2.89-5.24,5.95s2.28,5.57,5.24,5.95c.09.01.17.02.26.03.17.01.33.03.51.03s.34-.01.51-.03c.09,0,.17-.02.26-.03.08-.01.16-.04.24-.05v-3.03c-.25.74-.57,1.46-1,2.1,0,.01.01.02.02.03,0,0-.01,0-.02,0s-.01,0-.02,0c0-.01.01-.02.02-.03-.5-.75-.88-1.58-1.14-2.46h2.14v-1h-2.36c-.08-.49-.14-.99-.14-1.5s.05-1.01.14-1.5h2.73c.08.49.14.99.14,1.5,0,.34-.03.67-.07,1h1.01c.04-.33.06-.66.06-1,0-.51-.05-1.01-.12-1.5h2.38c.15.47.24.98.24,1.5,0,.35-.05.68-.12,1h1.03c.05-.33.09-.66.09-1,0-3.05-2.28-5.57-5.24-5.95Zm-5.52,7.45c-.15-.47-.24-.98-.24-1.5s.09-1.03.24-1.5h2.38c-.07.49-.12.99-.12,1.5s.05,1.01.12,1.5h-2.38Zm3.5,3.32c-1.3-.34-2.39-1.19-3.05-2.32h2.13c.21.82.52,1.6.92,2.32Zm-.92-7.32h-2.13c.66-1.13,1.75-1.98,3.05-2.32-.4.72-.71,1.5-.92,2.32Zm1.05,0c.26-.88.64-1.71,1.14-2.46,0-.01-.01-.02-.02-.03,0,0,.01,0,.02,0s.01,0,.02,0c0,.01-.01.02-.02.03.5.75.88,1.58,1.14,2.46h-2.27Zm3.32,0c-.21-.82-.52-1.6-.92-2.32,1.3.34,2.39,1.19,3.05,2.32h-2.13Z"/>
  <polygon class="cls-1" points="13 11 13 10 10 10 10 13 11 13 11 11.71 12.65 13.35 13.35 12.65 11.71 11 13 11"/>
</svg>